HIERARCHY
ROOT Hips
{
	OFFSET -0.001795 -0.223333 0.028219
	CHANNELS 6 Xposition Yposition Zposition Zrotation Yrotation Xrotation 
	JOINT LeftUpLeg
	{
		OFFSET 0.069520 -0.091406 -0.006815
		CHANNELS 3 Zrotation Yrotation Xrotation
		JOINT LeftLeg
		{
			OFFSET 0.034277 -0.375199 -0.004496
			CHANNELS 3 Zrotation Yrotation Xrotation
			JOINT LeftFoot
			{
				OFFSET -0.013596 -0.397961 -0.043693
				CHANNELS 3 Zrotation Yrotation Xrotation
				JOINT LeftToe
				{
					OFFSET 0.026358 -0.055791 0.119288
					CHANNELS 3 Zrotation Yrotation Xrotation
					End Site
					{
						OFFSET 0.000000 0.000000 0.000000
					}
				}
			}
		}
	}
	JOINT RightUpLeg
	{
		OFFSET -0.067670 -0.090522 -0.004320
		CHANNELS 3 Zrotation Yrotation Xrotation
		JOINT RightLeg
		{
			OFFSET -0.038290 -0.382569 -0.008850
			CHANNELS 3 Zrotation Yrotation Xrotation
			JOINT RightFoot
			{
				OFFSET 0.015774 -0.398415 -0.042312
				CHANNELS 3 Zrotation Yrotation Xrotation
				JOINT RightToe
				{
					OFFSET -0.025372 -0.048144 0.123348
					CHANNELS 3 Zrotation Yrotation Xrotation
					End Site
					{
						OFFSET 0.000000 0.000000 0.000000
					}
				}
			}
		}
	}
	JOINT Spine
	{
		OFFSET -0.002533 0.108963 -0.026696
		CHANNELS 3 Zrotation Yrotation Xrotation
		JOINT Spine1
		{
			OFFSET 0.005487 0.135180 0.001092
			CHANNELS 3 Zrotation Yrotation Xrotation
			JOINT Spine2
			{
				OFFSET 0.001457 0.052922 0.025425
				CHANNELS 3 Zrotation Yrotation Xrotation
				JOINT Neck
				{
					OFFSET -0.002778 0.213870 -0.042857
					CHANNELS 3 Zrotation Yrotation Xrotation
					JOINT Head
					{
						OFFSET 0.005152 0.064970 0.051349
						CHANNELS 3 Zrotation Yrotation Xrotation
						End Site
						{
							OFFSET 0.000000 0.000000 0.000000
						}
					}
				}
				JOINT LeftShoulder
				{
					OFFSET 0.078845 0.121749 -0.034090
					CHANNELS 3 Zrotation Yrotation Xrotation
					JOINT LeftArm
					{
						OFFSET 0.090977 0.030469 -0.008868
						CHANNELS 3 Zrotation Yrotation Xrotation
						JOINT LeftForeArm
						{
							OFFSET 0.259612 -0.012772 -0.027456
							CHANNELS 3 Zrotation Yrotation Xrotation
							JOINT LeftHand
							{
								OFFSET 0.249234 0.008986 -0.001171
								CHANNELS 3 Zrotation Yrotation Xrotation
								End Site
								{
									OFFSET 0.000000 0.000000 0.000000
								}
							}
						}
					}
				}
				JOINT RightShoulder
				{
					OFFSET -0.081759 0.118833 -0.038615
					CHANNELS 3 Zrotation Yrotation Xrotation
					JOINT RightArm
					{
						OFFSET -0.096012 0.032551 -0.009143
						CHANNELS 3 Zrotation Yrotation Xrotation
						JOINT RightForeArm
						{
							OFFSET -0.253742 -0.013329 -0.021401
							CHANNELS 3 Zrotation Yrotation Xrotation
							JOINT RightHand
							{
								OFFSET -0.255298 0.007772 -0.005559
								CHANNELS 3 Zrotation Yrotation Xrotation
								End Site
								{
									OFFSET 0.000000 0.000000 0.000000
								}
							}
						}
					}
				}
			}
		}
	}
}
MOTION
Frames: 18
Frame Time: 0.050000
0.000000 0.952795 0.000000 -0.991594 -8.145467 9.684371 4.667541 -0.391685 -6.038793 -0.307742 0.212916 -5.427938 3.621774 9.617452 12.349157 0.000000 0.000000 0.000000 -1.890694 0.801974 -8.209169 -0.895953 -0.075006 -3.294058 -0.342800 -6.816440 12.126114 0.000000 0.000000 0.000000 5.457658 0.284820 -5.106935 -2.719168 1.088094 -9.680128 -2.130758 6.588974 9.057777 6.819192 -2.568125 -17.959779 0.000000 0.000000 0.000000 -11.275647 1.712590 -2.035999 -60.794748 -6.230226 -4.549762 -12.708759 -16.608738 2.437922 0.000000 0.000000 0.000000 12.029547 -9.577554 -5.219523 66.618698 -0.914607 -7.198577 9.889380 18.555618 2.167093 0.000000 0.000000 0.000000 
-0.000260 0.952362 0.001796 -1.407613 -8.907889 10.649653 4.892907 -0.381936 -5.945078 -0.141356 0.240152 -6.409181 4.284066 10.532336 11.593547 0.000000 0.000000 0.000000 -1.713880 0.909334 -9.273769 -1.258013 -0.048581 -3.138658 0.225512 -5.956880 12.334636 0.000000 0.000000 0.000000 5.974612 0.365193 -5.909300 -2.687817 1.062357 -9.359324 -2.370364 7.252210 8.149239 7.368566 -2.711645 -18.796474 0.000000 0.000000 0.000000 -12.256309 2.831710 -2.745336 -59.412579 -5.664632 -4.630777 -13.281326 -15.176102 2.276767 0.000000 0.000000 0.000000 10.701403 -10.687205 -5.495396 67.893721 -2.129246 -7.868428 10.044020 18.266537 2.148472 0.000000 0.000000 0.000000 
-0.000377 0.951969 0.003266 -1.002288 -8.699986 10.264924 4.813283 -0.369628 -5.628290 -0.513839 0.243026 -5.819214 3.886415 9.861595 11.294894 0.000000 0.000000 0.000000 -1.736693 0.873770 -8.927307 -1.916230 0.001860 -2.929008 0.210338 -5.794406 11.933272 0.000000 0.000000 0.000000 5.392133 0.331501 -5.632346 -2.351919 0.939101 -9.673902 -2.404614 7.404530 7.893175 7.428897 -2.845601 -17.913512 0.000000 0.000000 0.000000 -12.466180 2.917183 -2.869568 -59.604992 -5.038937 -4.952969 -11.995835 -12.606878 1.729259 0.000000 0.000000 0.000000 10.998789 -10.324049 -5.347505 67.699125 -3.046411 -8.323642 8.122379 18.674045 1.926163 0.000000 0.000000 0.000000 
-0.000529 0.952005 0.004496 -1.195843 -8.925921 11.105789 5.617719 -0.360778 -5.969704 -1.148003 0.321618 -6.830297 3.729135 9.702116 12.407594 0.000000 0.000000 0.000000 -1.709104 0.946879 -9.644158 -1.946393 -0.007030 -3.106108 0.355596 -5.872967 12.706147 0.000000 0.000000 0.000000 5.232561 0.409002 -6.529035 -2.322428 0.936723 -8.402102 -2.081403 6.912213 6.137255 7.702425 -3.100935 -17.395646 0.000000 0.000000 0.000000 -12.575107 4.163099 -3.410951 -60.235888 -4.932516 -4.847353 -10.660780 -10.247988 1.279091 0.000000 0.000000 0.000000 9.473629 -10.814874 -5.383102 68.493029 -3.636675 -8.623701 8.651042 17.920077 1.871474 0.000000 0.000000 0.000000 
-0.000625 0.952402 0.005394 -1.133528 -8.758497 10.895482 5.546669 -0.361114 -5.902058 -1.357210 0.329460 -6.663814 3.910107 10.025490 12.411530 0.000000 0.000000 0.000000 -1.557302 0.925401 -9.413835 -2.344045 0.009924 -3.237492 0.426886 -5.637777 12.513047 0.000000 0.000000 0.000000 5.046835 0.386072 -6.328963 -2.179763 0.893079 -7.719356 -2.070875 6.540015 5.453677 7.687443 -3.063486 -17.595719 0.000000 0.000000 0.000000 -12.817152 4.233070 -3.463898 -59.965521 -4.860907 -4.780844 -9.943847 -8.177740 0.961149 0.000000 0.000000 0.000000 9.207640 -10.655353 -5.289321 68.130864 -3.678949 -8.559116 8.043348 17.441468 1.716234 0.000000 0.000000 0.000000 
-0.000687 0.952777 0.005940 -1.138292 -8.789778 11.242569 5.812664 -0.359193 -5.985792 -1.791210 0.371638 -7.149799 4.224097 10.583603 12.851029 0.000000 0.000000 0.000000 -1.455014 0.960925 -9.750770 -2.736272 0.019727 -3.454548 0.744249 -5.276510 13.043773 0.000000 0.000000 0.000000 4.856658 0.408046 -6.644296 -2.090701 0.857716 -7.751520 -1.946041 6.647652 5.361841 7.838016 -3.183305 -17.330399 0.000000 0.000000 0.000000 -12.915774 4.732338 -3.726774 -59.685997 -5.017585 -4.662700 -9.064565 -6.504995 0.707300 0.000000 0.000000 0.000000 8.758362 -10.701163 -5.224375 68.199849 -3.588725 -8.478290 7.498141 16.987401 1.593204 0.000000 0.000000 0.000000 
-0.000680 0.952912 0.006084 -1.232959 -8.776140 11.285984 5.923254 -0.361013 -6.132128 -1.710526 0.362780 -7.020143 4.511006 11.088000 13.236637 0.000000 0.000000 0.000000 -1.172563 0.996773 -10.059562 -2.900562 0.040228 -3.274133 0.879016 -5.013620 13.001918 0.000000 0.000000 0.000000 4.674644 0.399273 -6.604694 -1.866144 0.772928 -7.593160 -1.971078 6.388117 5.285652 7.991362 -3.256527 -17.561943 0.000000 0.000000 0.000000 -12.821454 5.015524 -3.809496 -59.229666 -4.883363 -4.670574 -8.842036 -5.673405 0.602323 0.000000 0.000000 0.000000 8.755837 -10.530779 -5.168927 67.696135 -2.618073 -7.868256 6.683092 17.037987 1.484553 0.000000 0.000000 0.000000 
-0.000654 0.952887 0.006018 -1.197098 -8.633306 11.532535 6.010558 -0.376032 -6.513427 -1.818638 0.365188 -6.889978 4.606222 11.207626 12.733132 0.000000 0.000000 0.000000 -1.107295 1.008102 -10.157764 -2.861591 0.031253 -3.387279 0.956725 -4.634072 12.506918 0.000000 0.000000 0.000000 4.473688 0.413747 -6.851301 -1.951492 0.812393 -7.186875 -2.038441 6.215021 4.997853 7.921609 -3.310602 -16.939005 0.000000 0.000000 0.000000 -12.679004 5.126261 -3.835217 -58.183565 -4.630558 -4.671105 -8.970976 -6.015502 0.646906 0.000000 0.000000 0.000000 8.658157 -10.416647 -5.107956 67.361308 -2.657758 -7.821980 6.417977 18.823001 1.623184 0.000000 0.000000 0.000000 
-0.000555 0.953133 0.005778 -1.094412 -8.499593 11.597108 5.910216 -0.392780 -6.795943 -1.558157 0.335271 -6.457211 4.332037 10.733504 12.342271 0.000000 0.000000 0.000000 -1.188616 1.017750 -10.271120 -2.710114 0.031846 -3.238289 0.797321 -4.835170 12.328551 0.000000 0.000000 0.000000 4.200618 0.394274 -6.726068 -1.908816 0.797430 -7.289405 -2.101044 6.408165 4.987035 8.075556 -3.377981 -16.907697 0.000000 0.000000 0.000000 -12.780757 4.633612 -3.669201 -57.047722 -4.928711 -4.430299 -8.854646 -6.469486 0.690611 0.000000 0.000000 0.000000 8.849256 -10.507675 -5.159535 66.593355 -2.847732 -7.787052 6.466468 21.006079 1.863212 0.000000 0.000000 0.000000 
-0.000345 0.953120 0.005401 -1.020247 -8.064129 11.690889 5.850039 -0.418298 -7.240696 -1.496949 0.312542 -5.859662 4.052226 10.212464 11.421440 0.000000 0.000000 0.000000 -1.314049 1.027379 -10.405602 -2.464604 0.025677 -3.118272 0.621240 -4.922710 11.910844 0.000000 0.000000 0.000000 3.918827 0.401065 -6.918128 -1.850752 0.784574 -6.968053 -2.282017 6.404288 4.974633 8.384388 -3.597067 -16.525065 0.000000 0.000000 0.000000 -12.502155 4.239976 -3.485150 -55.785155 -4.822316 -4.378822 -9.268443 -7.253940 0.800832 0.000000 0.000000 0.000000 9.363067 -10.499713 -5.221307 65.905490 -3.223047 -7.874764 6.132354 24.756598 2.205569 0.000000 0.000000 0.000000 
0.000006 0.952996 0.004779 -0.767042 -7.816317 11.747701 5.652514 -0.441161 -7.506801 -1.206874 0.284747 -5.646845 3.326088 8.993374 11.213024 0.000000 0.000000 0.000000 -1.675585 1.024522 -10.466483 -2.262164 0.024936 -2.928441 0.263438 -5.480971 11.715292 0.000000 0.000000 0.000000 3.636470 0.396256 -6.954696 -1.882929 0.801617 -6.932754 -2.356459 6.300123 5.182463 8.162868 -3.511834 -16.239290 0.000000 0.000000 0.000000 -12.617039 3.889792 -3.349037 -53.866503 -4.921879 -4.183331 -10.247220 -8.815250 1.053053 0.000000 0.000000 0.000000 8.652904 -11.110065 -5.359334 65.717010 -3.722103 -8.124482 8.007183 30.515238 3.311097 0.000000 0.000000 0.000000 
0.000454 0.952497 0.003727 -0.472056 -6.939231 11.689245 5.414339 -0.478547 -7.950094 -1.127636 0.270832 -5.448775 2.737214 8.074563 11.071979 0.000000 0.000000 0.000000 -1.949107 1.003581 -10.353673 -2.238657 0.026352 -2.930224 -0.094532 -6.038808 11.723485 0.000000 0.000000 0.000000 3.226770 0.381385 -6.933218 -1.820672 0.793705 -6.624073 -2.460493 5.846326 5.477871 8.309130 -3.648318 -15.973271 0.000000 0.000000 0.000000 -11.938044 3.436739 -3.033839 -52.251293 -4.907893 -4.082240 -11.835505 -11.062391 1.480876 0.000000 0.000000 0.000000 7.792278 -11.471623 -5.357137 65.335165 -4.500846 -8.500584 10.922110 39.429586 5.519617 0.000000 0.000000 0.000000 
0.001023 0.952363 0.001832 -0.561113 -6.527077 11.782735 5.450168 -0.498032 -8.391094 -1.105365 0.258583 -5.121372 2.402319 7.495299 10.765072 0.000000 0.000000 0.000000 -1.948032 1.015852 -10.499530 -1.986581 0.016492 -2.835988 -0.657053 -6.912217 11.339926 0.000000 0.000000 0.000000 3.211720 0.369937 -6.839426 -1.792121 0.791481 -5.973866 -2.607215 5.820749 5.462271 8.406967 -3.743382 -15.629385 0.000000 0.000000 0.000000 -10.753918 3.197239 -2.768434 -51.026851 -4.155120 -4.303000 -14.603779 -14.641973 2.316075 0.000000 0.000000 0.000000 7.242094 -12.633076 -5.737039 64.283662 -5.028065 -8.582589 17.525687 52.715509 11.188131 0.000000 0.000000 0.000000 
0.001627 0.952256 -0.001132 -0.434541 -6.979598 11.732333 5.408570 -0.499220 -8.578012 -1.199759 0.248943 -4.478760 2.471948 7.563877 10.750190 0.000000 0.000000 0.000000 -2.460681 1.053372 -11.032333 -1.397140 0.016822 -2.049358 -1.010977 -7.398271 10.650350 0.000000 0.000000 0.000000 2.608475 0.336098 -6.448262 -1.544716 0.687580 -5.781104 -2.737853 6.937104 5.757880 8.889220 -3.989985 -15.482214 0.000000 0.000000 0.000000 -9.957987 3.038516 -2.677509 -49.109749 -2.431225 -4.841858 -18.393386 -19.623153 3.732901 0.000000 0.000000 0.000000 7.082947 -11.687324 -5.257793 62.377873 -4.198521 -7.793691 30.237677 67.087912 24.228698 0.000000 0.000000 0.000000 
0.002240 0.952143 -0.005051 -0.284554 -7.082995 11.801756 5.374829 -0.536064 -9.631084 -1.583570 0.252534 -3.259053 2.705239 7.813143 9.979808 0.000000 0.000000 0.000000 -2.764880 1.126268 -11.949936 -1.150134 0.041094 -1.197840 -1.363579 -7.867884 9.998754 0.000000 0.000000 0.000000 2.543346 0.306678 -6.071966 -1.807091 0.794610 -5.489970 -3.213725 8.285358 5.708199 9.183808 -4.129247 -15.022671 0.000000 0.000000 0.000000 -7.690127 2.421693 -2.171184 -47.640396 -0.531682 -5.446112 -24.998554 -24.352704 5.959080 0.000000 0.000000 0.000000 6.305891 -10.571549 -4.598920 58.711537 -1.185783 -5.727720 71.025883 75.547761 63.805546 0.000000 0.000000 0.000000 
0.002590 0.952251 -0.009474 -0.176886 -7.811394 11.294065 5.315097 -0.520299 -9.579325 -1.401537 0.217691 -2.366525 2.870630 8.030487 9.997484 0.000000 0.000000 0.000000 -3.028883 1.148903 -12.281525 -1.346617 0.103520 -0.271405 -1.012994 -7.257958 9.965210 0.000000 0.000000 0.000000 2.512925 0.242938 -5.116351 -2.341074 1.002164 -5.626689 -3.507484 10.016476 6.509027 10.366244 -4.867047 -14.633671 0.000000 0.000000 0.000000 -7.868023 0.900285 -1.712138 -44.250998 0.461286 -5.376107 -33.070686 -26.554964 8.284684 0.000000 0.000000 0.000000 6.392569 -7.911473 -3.404807 52.716972 2.423425 -3.760625 117.640861 74.774742 111.544065 0.000000 0.000000 0.000000 
0.002616 0.951357 -0.013790 -0.259604 -7.773450 10.843611 5.385075 -0.512155 -9.593677 -1.320946 0.195160 -1.703984 3.110544 8.347772 9.350050 0.000000 0.000000 0.000000 -2.725884 1.168067 -12.406509 -1.712141 0.156864 0.109807 -0.642807 -6.850479 10.788346 0.000000 0.000000 0.000000 2.341028 0.180962 -4.219716 -2.842023 1.221165 -4.961188 -3.706998 11.038432 6.684895 11.583123 -5.301993 -15.744616 0.000000 0.000000 0.000000 -6.566006 -1.349800 -0.697958 -41.325894 1.391490 -5.262505 -45.691308 -26.336646 11.011055 0.000000 0.000000 0.000000 5.321119 -4.950716 -2.018871 47.392067 7.095831 -1.754245 131.913519 69.613332 124.553465 0.000000 0.000000 0.000000 
0.002374 0.950869 -0.017177 -0.523355 -7.456456 10.575326 5.846850 -0.479813 -9.574704 -1.373444 0.206574 -2.001231 2.836286 7.952308 9.679520 0.000000 0.000000 0.000000 -2.294616 1.142174 -11.983370 -1.852714 0.182701 0.317406 -0.771650 -7.063601 10.787534 0.000000 0.000000 0.000000 2.655338 0.119313 -3.376003 -3.470663 1.490520 -4.821817 -3.560003 11.873944 7.301293 12.187423 -5.465596 -16.402159 0.000000 0.000000 0.000000 -6.058383 -3.726645 0.224753 -39.128486 1.350644 -4.933517 -55.756665 -25.334086 12.708292 0.000000 0.000000 0.000000 4.353681 -2.341709 -0.854323 43.504947 10.104573 -0.773915 129.951447 65.539644 118.873870 0.000000 0.000000 0.000000 
